<?xml version="1.0" encoding="UTF-8" standalone="no"?>
<!-- Created with Inkscape (http://www.inkscape.org/) -->

<svg
   width="224.36774mm"
   height="210.55568mm"
   viewBox="0 0 224.36774 210.55568"
   version="1.1"
   id="svg1"
   xml:space="preserve"
   xmlns="http://www.w3.org/2000/svg"
   xmlns:svg="http://www.w3.org/2000/svg"><defs
     id="defs1" /><g
     id="layer1"
     transform="translate(-8.583718,-39.257868)"><path
       style="fill:#000000"
       d="m 22.527956,249.29097 c -6.489544,-1.70014 -10.688993,-4.70689 -12.573393,-9.0024 -1.460374,-3.32893 -1.369739,2.99917 -1.369739,-95.63422 V 53.373106 l 0.584217,-1.852083 c 1.149644,-3.644594 3.603684,-6.808086 6.463874,-8.332552 3.086395,-1.645032 1.199589,-1.579691 45.761077,-1.584728 l 40.638338,-0.0046 1.67459,-1.124479 1.67458,-1.12448 56.90583,-0.07395 c 41.42313,-0.05383 57.39674,0.0075 58.71021,0.225457 5.22924,0.867686 9.90469,5.395928 11.48787,11.126182 0.44092,1.595892 0.46606,6.675195 0.46606,94.158757 v 92.47187 l -0.61541,1.71979 c -1.53931,4.30161 -4.14482,7.45608 -7.5374,9.12544 -3.76708,1.85364 4.65448,1.71434 -102.97218,1.70331 -95.021413,-0.01 -97.413189,-0.0222 -99.298524,-0.51608 z m 197.321364,-7.84743 c 1.81397,-0.58584 3.72245,-2.31654 4.53342,-4.1111 l 0.63123,-1.39685 v -91.28124 c 0,-86.908523 -0.0226,-91.346002 -0.47191,-92.633077 -0.61079,-1.749619 -1.96848,-3.317312 -3.55575,-4.105732 l -1.264,-0.627851 H 120.10669 20.491073 l -1.511945,0.742461 c -0.857133,0.420906 -1.9766,1.270336 -2.584821,1.961311 -2.032862,2.309454 -1.867862,-6.455734 -1.792095,95.200088 l 0.06803,91.27321 0.785322,1.41785 c 0.969473,1.75032 2.521822,3.1128 4.101367,3.59972 1.016572,0.31338 16.220873,0.37233 100.056359,0.38796 91.94826,0.0171 98.95398,-0.0127 100.23603,-0.42675 z M 23.666073,234.37388 c -1.715495,-0.75723 -1.843576,-1.12674 -1.93653,-5.58674 -0.06983,-3.35055 -0.0096,-4.19668 0.348303,-4.88868 0.814709,-1.57548 0.940696,-1.58891 14.902059,-1.58891 h 12.66937 l 0.899023,0.60498 c 1.325177,0.89176 1.617222,2.05973 1.514444,6.05668 -0.09661,3.75719 -0.360919,4.42893 -2.089436,5.31032 -0.826098,0.42124 -2.007534,0.46172 -13.210359,0.45267 -9.616893,-0.008 -12.476429,-0.0865 -13.096874,-0.36032 z m 34.334897,-0.0294 c -1.61655,-0.68728 -1.921334,-1.62211 -1.922451,-5.89654 -0.0011,-4.31375 0.247819,-5.14398 1.727877,-5.76239 1.328265,-0.55498 25.376501,-0.55498 26.704766,0 1.481789,0.61913 1.728866,1.44651 1.728866,5.78941 0,3.52998 -0.0445,3.87665 -0.604474,4.70949 -0.343983,0.5116 -0.999594,1.0361 -1.521354,1.21712 -1.409975,0.48915 -24.949451,0.4377 -26.11323,-0.0571 z m 34.403335,0.2154 c -0.320429,-0.0622 -0.945507,-0.52633 -1.389063,-1.03151 l -0.806464,-0.91851 v -4.16526 c 0,-4.64394 0.136136,-5.09356 1.745873,-5.76615 1.312605,-0.54845 25.373479,-0.54204 26.687759,0.007 1.48178,0.61913 1.72886,1.44651 1.72886,5.78941 0,3.52998 -0.0445,3.87665 -0.60447,4.70949 -0.34538,0.51368 -0.99747,1.03439 -1.52135,1.21482 -0.66222,0.22809 -4.29731,0.30994 -13.08772,0.2947 -6.693952,-0.0116 -12.432996,-0.072 -12.753425,-0.13409 z m 33.655505,-0.18603 c -1.71549,-0.75723 -1.84357,-1.12674 -1.93653,-5.58674 -0.0965,-4.63212 0.12973,-5.45338 1.68102,-6.10156 1.36904,-0.57202 25.7336,-0.55447 26.84321,0.0193 1.47289,0.76166 1.59043,1.18502 1.59043,5.72863 0,4.07286 -0.0133,4.16994 -0.67847,4.96047 -0.37315,0.44347 -1.11729,0.92819 -1.65364,1.07716 -1.55721,0.4325 -24.84438,0.34485 -25.84602,-0.0973 z m 60.48692,-4.65081 c -12.22445,-3.30823 -18.09858,-16.44383 -12.30757,-27.52185 3.35724,-6.42228 9.47364,-10.08223 16.84389,-10.07912 6.71089,0.003 12.21411,2.92734 15.81017,8.40181 2.45947,3.74419 3.33322,7.03801 3.10678,11.71186 -0.3877,8.00236 -5.33407,14.49363 -13.03186,17.1021 -2.92975,0.99278 -7.54585,1.1634 -10.42141,0.3852 z m 6.87957,-7.41751 c 5.81968,-1.09671 10.01519,-7.15998 9.01011,-13.0212 -0.6288,-3.6669 -3.09154,-6.83744 -6.57848,-8.46918 -3.62174,-1.69481 -8.08242,-1.20996 -11.41088,1.24031 -3.84623,2.83143 -5.47732,7.95287 -4.01908,12.61942 0.61543,1.96944 1.13852,2.81278 2.78407,4.48862 2.72026,2.77029 6.31653,3.87655 10.21426,3.14203 z m -5.08825,-2.99201 c -2.22666,-0.83084 -3.90159,-2.3158 -5.05974,-4.48584 -0.49809,-0.93331 -0.59631,-1.5307 -0.59693,-3.63066 -6.8e-4,-2.35948 0.0546,-2.61564 0.90244,-4.17924 0.94224,-1.73773 1.98414,-2.72659 3.99162,-3.78846 1.01212,-0.53537 1.56748,-0.6299 3.70417,-0.63053 2.29235,-6.6e-4 2.63823,0.0683 3.93049,0.78411 2.90871,1.6111 4.53618,4.4146 4.53618,7.81412 0,3.37202 -1.50456,6.0276 -4.27069,7.53784 -1.21718,0.66455 -1.75489,0.78556 -3.79911,0.85497 -1.53869,0.0522 -2.71994,-0.0455 -3.33843,-0.27631 z m -164.671977,-0.696 c -0.291041,-0.12039 -0.826823,-0.53906 -1.190625,-0.9304 l -0.661458,-0.71151 -0.07355,-12.6777 c -0.06397,-11.02667 -0.02018,-12.7809 0.336235,-13.47014 0.885239,-1.71186 0.492474,-1.66235 14.296174,-1.80205 13.629011,-0.13793 13.581691,-0.14216 14.815246,1.32384 l 0.656101,0.77973 v 12.90565 12.90564 l -0.651323,0.70279 c -0.358227,0.38654 -0.96129,0.82064 -1.340141,0.96468 -0.841149,0.3198 -25.4149,0.32869 -26.18666,0.009 z m 23.242418,-5.0055 c 0.392152,-0.32527 0.437789,-1.33338 0.437789,-9.67052 0,-6.88631 -0.08259,-9.38999 -0.3175,-9.6249 -0.235402,-0.2354 -2.826782,-0.3175 -10.021769,-0.3175 -8.728335,0 -9.740788,0.0443 -10.067395,0.44017 -0.295834,0.3586 -0.347575,2.11146 -0.279207,9.45886 0.04616,4.96027 0.141082,9.2195 0.210947,9.46494 0.06987,0.24544 0.389289,0.48357 0.70983,0.52917 0.320542,0.0456 4.701814,0.0829 9.73616,0.0829 7.369175,0 9.23869,-0.0708 9.591145,-0.36313 z m 11.153414,5.0055 c -0.291042,-0.12039 -0.826823,-0.53906 -1.190625,-0.9304 l -0.661459,-0.71152 -0.06625,-12.74502 c -0.07123,-13.70281 -0.0887,-13.50906 1.311688,-14.54864 0.689137,-0.51159 1.200229,-0.53584 13.493749,-0.64044 12.482542,-0.10621 12.797036,-0.0963 13.624534,0.42837 1.720193,1.09072 1.689111,0.80417 1.607748,14.82158 -0.07106,12.24232 -0.09146,12.69133 -0.602715,13.26451 -1.154131,1.29392 -1.392818,1.31511 -14.60973,1.29721 -6.807773,-0.009 -12.615894,-0.11527 -12.906935,-0.23565 z m 23.229255,-5.01163 c 0.342256,-0.34226 0.482601,-18.09323 0.150311,-19.01147 l -0.215429,-0.59532 h -9.919114 c -9.535948,0 -9.929694,0.0198 -10.193006,0.51178 -0.173623,0.32441 -0.273893,3.85436 -0.273893,9.64229 0,8.61358 0.02797,9.15009 0.493937,9.47624 0.642242,0.44954 19.506366,0.42731 19.957194,-0.0235 z m 10.555342,4.7281 c -1.614122,-0.98411 -1.624691,-1.07774 -1.616571,-14.32186 0.0079,-12.9372 0.0489,-13.3612 1.387042,-14.35387 0.729301,-0.54101 1.042159,-0.55599 13.399437,-0.64145 14.02935,-0.097 13.77124,-0.12524 14.83642,1.6217 0.49311,0.80874 0.51652,1.41686 0.51746,13.44523 9.9e-4,12.5235 -0.002,12.60249 -0.5726,13.32737 -1.13746,1.44604 -1.26722,1.45891 -14.6976,1.45784 -11.948269,-9.6e-4 -12.408161,-0.0195 -13.253588,-0.53496 z m 23.412558,-4.79486 c 0.48477,-0.40232 0.5155,-18.73925 0.0322,-19.22253 -0.23542,-0.23542 -2.83064,-0.3175 -10.03916,-0.3175 h -9.721663 l -0.411878,0.58804 c -0.353264,0.50436 -0.411878,1.87406 -0.411878,9.6249 0,9.47186 -0.0026,9.44996 1.168581,9.66849 1.304362,0.24336 19.055918,-0.0693 19.383788,-0.3414 z m 10.38072,4.72755 c -0.49234,-0.33179 -1.04397,-0.89733 -1.22585,-1.25677 -0.25017,-0.4944 -0.33163,-3.63502 -0.33458,-12.89899 -0.004,-13.34074 0.0184,-13.56271 1.48341,-14.52301 0.68935,-0.45186 1.59219,-0.4836 13.75861,-0.4836 h 13.02085 l 0.70757,0.66146 c 0.38917,0.3638 0.82701,0.88311 0.97299,1.15402 0.16315,0.3028 0.29848,5.30967 0.35126,12.99579 0.0815,11.87582 0.0608,12.54445 -0.41389,13.32497 -0.98031,1.612 -1.1396,1.62939 -14.92893,1.62939 h -12.49627 z m 23.76952,-4.88069 c 0.42675,-0.5652 0.47951,-18.08535 0.0568,-18.87511 -0.26319,-0.49178 -0.65527,-0.51178 -10.03527,-0.51178 -8.5212,0 -9.8142,0.0528 -10.17715,0.41578 -0.36178,0.36178 -0.41577,1.59206 -0.41577,9.47443 0,6.83271 0.0813,9.16823 0.33073,9.50457 0.29645,0.39971 1.22177,0.45293 8.92968,0.51359 10.25961,0.0807 10.87776,0.0523 11.31094,-0.52148 z M 23.348189,185.01401 c -1.690496,-1.03075 -1.666491,-0.82295 -1.666491,-14.42586 0,-13.53225 0.02302,-13.7477 1.553518,-14.53915 0.695614,-0.35971 2.518788,-0.41445 13.805634,-0.41445 h 13.00418 l 0.899583,0.89959 0.899584,0.89958 v 13.00843 c 0,8.05521 -0.09947,13.1943 -0.261237,13.49656 -0.14368,0.26847 -0.663749,0.7369 -1.155709,1.04094 -0.874684,0.54059 -1.174736,0.5528 -13.563242,0.55183 -12.098386,-9.5e-4 -12.706906,-0.0242 -13.51582,-0.51747 z m 23.680591,-4.82612 c 0.235079,-0.23508 0.3175,-2.76799 0.3175,-9.75719 0,-8.18784 -0.05418,-9.48465 -0.408539,-9.77874 -0.324852,-0.26961 -2.397172,-0.30143 -10.116411,-0.15536 -5.339329,0.10103 -9.80144,0.27726 -9.915803,0.39162 -0.343974,0.34398 -0.249288,18.83818 0.09859,19.25735 0.410164,0.49422 19.532351,0.53462 20.02466,0.0423 z m 10.613086,4.74132 c -1.609031,-1.08432 -1.570679,-0.70596 -1.498264,-14.78114 0.06405,-12.44979 0.08353,-12.89006 0.595386,-13.45797 0.291042,-0.32291 0.79334,-0.68815 1.116219,-0.81164 0.850347,-0.32523 25.842631,-0.34908 26.443593,-0.0252 0.267311,0.14405 0.783676,0.58001 1.147478,0.96879 l 0.661458,0.70688 0.07334,12.89863 0.07334,12.89863 -0.580783,0.73835 c -1.145718,1.45654 -1.260405,1.46797 -14.73181,1.46797 H 58.537034 Z m 23.559381,-4.67558 c 0.584265,-0.36959 0.603614,-18.96228 0.02034,-19.54555 -0.341638,-0.34164 -1.703731,-0.37153 -10.172236,-0.22323 -7.424394,0.13001 -9.828738,0.2515 -9.9895,0.50473 -0.323323,0.50932 -0.272438,18.39395 0.05407,19.00403 0.263216,0.49183 0.652532,0.51162 9.98802,0.50772 5.456624,-0.002 9.882943,-0.11084 10.099306,-0.2477 z m 10.674022,4.76038 c -1.736911,-1.05905 -1.710174,-0.81673 -1.617672,-14.66122 0.0762,-11.40521 0.124113,-12.55512 0.550178,-13.20512 1.014311,-1.54741 0.544612,-1.49831 14.546175,-1.52057 14.27423,-0.0227 13.74265,-0.0852 14.59765,1.71658 0.36486,0.76887 0.41967,2.52468 0.41967,13.44257 0,12.33455 -0.01,12.5707 -0.55253,13.26062 -1.18442,1.50575 -0.9873,1.48568 -14.58172,1.48461 -11.945579,-9.4e-4 -12.553221,-0.0245 -13.361751,-0.51747 z m 23.416011,-4.82612 c 0.23508,-0.23508 0.3175,-2.76799 0.3175,-9.75719 0,-7.87302 -0.0629,-9.49192 -0.37925,-9.75443 -0.28071,-0.23297 -2.86926,-0.29941 -9.96313,-0.25572 -8.915842,0.0549 -9.617898,0.093 -10.071797,0.54693 -0.455059,0.45506 -0.487909,1.09474 -0.487909,9.50113 0,5.70707 0.100467,9.20095 0.273893,9.525 0.263267,0.49192 0.656384,0.51178 10.133543,0.51178 7.31584,0 9.94156,-0.0819 10.17715,-0.3175 z m 10.45065,4.82612 c -1.69165,-1.03145 -1.66805,-0.82638 -1.65156,-14.35121 0.0107,-8.76981 0.10465,-12.5095 0.33073,-13.1631 0.64262,-1.85784 0.39518,-1.82623 14.78705,-1.88903 14.14614,-0.0617 13.61082,-0.11772 14.69537,1.53711 0.42681,0.65123 0.47248,1.78747 0.53421,13.29163 0.0656,12.23298 0.0527,12.60364 -0.4688,13.45533 -0.99945,1.63211 -1.05141,1.63783 -14.86989,1.63674 -11.94098,-9.4e-4 -12.54859,-0.0245 -13.35711,-0.51747 z m 23.5005,-4.94354 c 0.56848,-0.68499 0.61316,-18.23037 0.0487,-19.11327 l -0.40311,-0.63047 -9.79938,0.1487 c -7.70509,0.11692 -9.84675,0.22339 -10.02098,0.49818 -0.36984,0.58329 -0.28641,18.84006 0.0878,19.21428 0.2354,0.2354 2.82678,0.3175 10.02177,0.3175 8.68052,0 9.74235,-0.0459 10.06522,-0.43492 z m 16.73363,5.1526 c -0.85065,-0.4119 -1.2685,-1.42244 -1.27668,-3.0875 -0.0177,-3.61573 0.24536,-3.74685 7.51804,-3.74685 6.18943,0 6.81819,0.13334 7.41425,1.57235 0.20182,0.48723 0.28878,1.49564 0.2209,2.56167 -0.0966,1.51736 -0.21158,1.8438 -0.8395,2.38392 -0.71926,0.61867 -0.79449,0.6256 -6.59977,0.6079 -3.46392,-0.0106 -6.10395,-0.13011 -6.43724,-0.29149 z m 18.93319,-0.464 c -0.72536,-0.72536 -0.7734,-0.90431 -0.7734,-2.8811 0,-1.68015 0.10251,-2.23442 0.50533,-2.73234 0.49885,-0.61662 0.57856,-0.62565 6.22343,-0.70539 l 5.71811,-0.0808 0.78802,0.78803 c 0.72721,0.72721 0.78803,0.93387 0.78803,2.67785 0,1.03941 -0.11559,2.10581 -0.25687,2.36979 -0.56514,1.05598 -2.10294,1.33734 -7.30946,1.33734 h -4.90979 z m 18.18101,-0.025 c -0.63251,-0.7517 -0.69816,-1.03746 -0.69816,-3.03917 0,-2.08684 0.0398,-2.24073 0.71646,-2.77301 0.68408,-0.53811 0.94815,-0.55989 5.84471,-0.48223 5.0242,0.0797 5.13852,0.094 5.63355,0.70596 0.40562,0.50143 0.50528,1.05332 0.50528,2.79815 0,1.9937 -0.0564,2.2266 -0.68209,2.81496 -0.66456,0.62495 -0.80985,0.64354 -5.65184,0.72325 l -4.96975,0.0818 z M 165.4707,171.38928 c -0.49294,-0.49294 -0.65834,-0.95518 -0.68641,-1.91823 -0.0713,-2.44468 0.0778,-3.37638 0.63688,-3.98078 0.54075,-0.58458 0.6618,-0.59531 6.71809,-0.59531 h 6.16741 l 0.86407,0.77205 c 0.84218,0.75248 0.86407,0.82681 0.86407,2.93332 0,2.04006 -0.0416,2.19709 -0.74236,2.79983 -0.73918,0.63582 -0.76894,0.63855 -6.95734,0.63855 h -6.21498 z m 20.25265,0.47243 c -0.21828,-0.0852 -0.66476,-0.39866 -0.99219,-0.69655 -0.52145,-0.47441 -0.59531,-0.80103 -0.59531,-2.63251 0,-1.95821 0.0491,-2.13997 0.7734,-2.86429 l 0.7734,-0.7734 h 5.46466 5.46466 l 0.7734,0.7734 c 0.7177,0.7177 0.7734,0.9167 0.7734,2.76337 0,1.7216 -0.0861,2.09009 -0.63809,2.73233 l -0.63809,0.74236 -5.38118,0.0551 c -2.95965,0.0303 -5.55978,-0.0146 -5.77806,-0.0998 z m 17.36589,-0.37137 c -0.65869,-0.51813 -0.69714,-0.67666 -0.69714,-2.87474 0,-1.96908 0.0861,-2.4358 0.5605,-3.03892 l 0.5605,-0.71256 5.10739,0.0816 c 4.98803,0.0797 5.12333,0.0966 5.7895,0.723 0.62769,0.59026 0.68211,0.81816 0.68211,2.8563 0,1.99881 -0.0634,2.27822 -0.64943,2.8643 -0.64373,0.64373 -0.69336,0.64943 -5.65286,0.64943 -4.6612,0 -5.05111,-0.0375 -5.70057,-0.54837 z m -37.88312,-13.59481 c -0.59229,-0.59229 -0.64888,-0.85419 -0.64312,-2.97656 0.007,-2.74857 0.31882,-4.30171 0.95575,-4.76745 0.34286,-0.2507 2.02156,-0.33781 6.50998,-0.33781 6.73052,0 7.32339,0.12235 7.8451,1.61894 0.6455,1.85166 0.20686,6.07489 -0.70434,6.78158 -0.31443,0.24386 -2.11902,0.33073 -6.87019,0.33073 h -6.44375 z m 19.93941,-0.15227 -0.8017,-0.8017 0.0971,-3.06032 c 0.13698,-4.31512 -0.19975,-4.1194 6.90919,-4.01584 l 5.53249,0.0806 0.63806,0.74236 c 0.59342,0.69043 0.63805,0.95282 0.63805,3.75111 0,4.25822 0.25307,4.10549 -6.80291,4.10549 h -5.40863 z m 18.14747,0.24476 c -0.73084,-0.80757 -0.72163,-3.90955 0.014,-4.72243 0.50165,-0.55432 0.6761,-0.56984 5.514,-0.4908 4.88487,0.0798 5.00721,0.0955 5.50124,0.70625 0.37037,0.45787 0.50527,1.04383 0.50527,2.19484 0,1.31437 -0.10582,1.67603 -0.64944,2.21965 -0.64243,0.64243 -0.70185,0.64943 -5.51524,0.64943 -4.61069,0 -4.89224,-0.0292 -5.36984,-0.55694 z M 23.541723,151.5919 c -0.359434,-0.18187 -0.924981,-0.73351 -1.256771,-1.22585 l -0.603254,-0.89517 V 137.0661 c 0,-13.33986 0.03756,-13.74095 1.366963,-14.59568 0.523098,-0.33633 2.597848,-0.40848 13.581995,-0.47234 14.123013,-0.0821 13.746759,-0.11898 14.697543,1.44034 0.490129,0.80383 0.514066,1.43469 0.515009,13.57347 9.72e-4,12.51001 -0.0086,12.74263 -0.55154,13.43289 -1.1847,1.50611 -0.98628,1.48594 -14.581727,1.48171 -9.479338,-0.003 -12.673208,-0.0841 -13.168218,-0.33459 z M 47.0126,146.46475 c 0.507143,-0.69356 0.480655,-18.68926 -0.02813,-19.11151 -0.258884,-0.21486 -3.136892,-0.28052 -10.116822,-0.23084 l -9.755012,0.0695 -0.319493,0.66675 c -0.240305,0.5015 -0.280005,2.90949 -0.160173,9.71531 l 0.15932,9.04855 0.61904,0.20657 c 0.340473,0.11361 4.814964,0.1808 9.943316,0.14931 8.482982,-0.0521 9.354381,-0.0984 9.657954,-0.51359 z m 11.049305,5.21322 c -0.291042,-0.12039 -0.826823,-0.53915 -1.190625,-0.93059 l -0.661459,-0.71171 v -13.22955 -13.22956 l 0.828065,-0.73987 0.828065,-0.73988 12.665684,-0.12577 c 11.554921,-0.11474 12.76017,-0.0859 13.743072,0.329 1.994799,0.842 1.965321,0.61876 1.965321,14.88413 0,12.33455 -0.0098,12.5707 -0.552528,13.26061 -1.185894,1.50762 -0.981769,1.48706 -14.581728,1.46884 -6.883085,-0.009 -12.752826,-0.11527 -13.043867,-0.23565 z m 23.070251,-5.13379 c 0.475762,-0.45506 0.562112,-18.50779 0.09124,-19.07516 -0.295411,-0.35595 -1.608218,-0.40947 -10.044097,-0.40947 -7.194987,0 -9.786367,0.0821 -10.02177,0.3175 -0.486602,0.48661 -0.452184,18.82052 0.03609,19.22575 0.240059,0.19923 3.277185,0.31583 9.458854,0.36313 9.596439,0.0734 9.978036,0.0581 10.47968,-0.42175 z m 10.562225,4.83368 c -1.504538,-1.18347 -1.485638,-0.9996 -1.485192,-14.44944 3.74e-4,-11.25871 0.04239,-12.46642 0.463021,-13.30814 0.254435,-0.50916 0.760266,-1.06421 1.124068,-1.23346 0.465291,-0.21645 4.47054,-0.33424 13.505332,-0.39718 12.08113,-0.0842 12.88772,-0.0607 13.582,0.39414 1.46682,0.96104 1.48801,1.1703 1.48376,14.6553 -0.003,9.36979 -0.0843,12.53658 -0.33458,13.03128 -0.18188,0.35944 -0.73351,0.92498 -1.22585,1.25677 l -0.89517,0.60326 h -12.75748 c -12.536653,0 -12.769642,-0.01 -13.459909,-0.55253 z m 23.575299,-4.78709 c 0.47514,-0.39433 0.49576,-18.73955 0.0216,-19.21372 -0.23533,-0.23533 -2.81465,-0.3175 -9.96718,-0.3175 -8.607843,0 -9.701931,0.0473 -10.133545,0.43789 -0.451087,0.40822 -0.483855,1.06122 -0.483855,9.64229 0,8.67987 0.0281,9.2241 0.493092,9.55013 0.63375,0.44436 19.527488,0.35107 20.069898,-0.0991 z m 10.47225,4.8253 c -1.69093,-1.03928 -1.66649,-0.8277 -1.66649,-14.43 0,-13.46395 0.0298,-13.75118 1.50342,-14.51325 0.62344,-0.32239 2.93578,-0.40276 13.58074,-0.47203 12.15958,-0.0791 12.86808,-0.0577 13.57052,0.41027 1.51192,1.00726 1.49445,0.83748 1.51555,14.7264 l 0.0194,12.77261 -0.94384,0.94401 -0.94384,0.94402 -12.8942,0.0693 c -12.42537,0.0668 -12.925,0.0504 -13.74125,-0.45132 z m 23.39824,-4.82848 c 0.47167,-0.39145 0.48863,-18.73967 0.0178,-19.21054 -0.49415,-0.49414 -19.61467,-0.45169 -20.02645,0.0445 -0.21463,0.25862 -0.28054,3.03251 -0.23083,9.7157 0.068,9.14812 0.0816,9.35973 0.61512,9.62606 0.74576,0.37225 19.16284,0.20736 19.6244,-0.17569 z m 56.95438,-2.82607 c -4.96835,-1.63 -6.67909,-7.63288 -3.31201,-11.62174 1.89767,-2.24811 5.79079,-2.97545 8.4731,-1.58299 2.5749,1.33668 3.94085,3.60404 3.8999,6.47346 -0.0395,2.76856 -1.40218,4.96149 -3.86431,6.21875 -1.18508,0.60514 -4.05238,0.88793 -5.19668,0.51252 z m -40.54149,-2.12755 -0.86407,-0.77142 -0.0844,-4.42141 c -0.13148,-6.88891 -0.29986,-6.73593 7.41344,-6.73534 7.94357,6.1e-4 8.14798,0.16851 8.14866,6.69346 4.3e-4,4.13703 -0.23249,5.15819 -1.30785,5.7337 -0.30596,0.16374 -2.88927,0.27243 -6.47538,0.27243 h -5.96634 z m 39.56055,-19.44128 c -2.65522,-0.8653 -4.71281,-2.6383 -6.08568,-5.24395 -0.67052,-1.27264 -0.73687,-1.6487 -0.73687,-4.17668 0,-2.4465 0.0824,-2.95184 0.69058,-4.23334 1.02428,-2.15838 2.62731,-3.81055 4.6756,-4.81892 1.62407,-0.79952 1.9706,-0.86962 4.29928,-0.86962 2.39619,0 2.64176,0.0538 4.55233,0.9981 6.31561,3.12135 7.6323,10.79753 2.69897,15.73487 -2.17058,2.17235 -3.53133,2.7669 -6.598,2.88285 -1.53533,0.058 -2.77734,-0.039 -3.49621,-0.27331 z m 6.44478,-11.6353 c 1.48939,-1.28112 0.66703,-3.60617 -1.27549,-3.60617 -1.10526,0 -1.70592,0.39237 -2.03182,1.32723 -0.3416,0.9799 -0.0494,1.88914 0.79778,2.48253 0.84754,0.59364 1.65925,0.52779 2.50953,-0.20359 z m -54.55435,8.4444 c -0.60066,-0.60067 -0.65164,-0.85398 -0.67871,-3.37344 -0.0412,-3.83305 -0.0188,-3.97763 0.71997,-4.64223 0.64464,-0.57993 0.81479,-0.59531 6.58535,-0.59531 5.8786,0 5.92926,0.005 6.66597,0.63792 0.72836,0.62589 0.74399,0.69961 0.82877,3.9073 0.0797,3.01632 0.0424,3.32532 -0.48222,3.99228 l -0.56864,0.72291 h -6.21053 -6.21053 z m 19.84374,-0.26458 c -0.61789,-0.61791 -0.64943,-0.80474 -0.64943,-3.84849 0,-3.04375 0.0315,-3.23058 0.64943,-3.84848 l 0.64944,-0.64943 h 6.20043 c 7.96675,0 7.44966,-0.31221 7.44966,4.49791 0,4.81012 0.51709,4.49792 -7.44966,4.49792 h -6.20043 z m -153.905137,-5.14931 -0.86407,-0.77165 -0.08098,-7.0997 c -0.04454,-3.90484 -0.0083,-7.492328 0.0805,-7.972211 0.111072,-0.600158 0.425416,-1.033449 1.007017,-1.388074 0.772354,-0.470934 1.365044,-0.515643 6.847586,-0.516547 3.301125,-5.44e-4 6.306539,0.114779 6.678698,0.256274 0.372159,0.141494 1.213955,0.752531 1.870659,1.357859 l 1.194006,1.100601 1.291354,-1.207915 c 0.79207,-0.74089 1.635501,-1.269515 2.181461,-1.367244 0.489559,-0.08763 24.074228,-0.125344 52.410374,-0.0838 l 51.520262,0.07553 0.60264,0.602253 c 0.59457,0.594182 0.6037,0.702098 0.68083,8.052104 0.0557,5.30552 -0.0122,7.66796 -0.23571,8.20762 -0.67902,1.63929 3.97769,1.52657 -63.06056,1.52657 H 23.806707 Z m 16.413221,-5.63126 c 0.198445,-0.19845 0.3175,-1.18349 0.3175,-2.62694 0,-3.35019 0.352773,-3.18595 -6.634869,-3.0889 -3.985938,0.0554 -5.871681,0.17688 -6.086638,0.39221 -0.392884,0.39358 -0.338321,4.81069 0.06543,5.29718 0.394195,0.47498 11.865455,0.49957 12.338572,0.0264 z m 17.462499,0 c 0.198526,-0.19853 0.3175,-1.18435 0.3175,-2.63083 0,-3.22881 0.185669,-3.13709 -6.35,-3.13709 -6.481364,0 -6.349999,-0.0609 -6.349999,2.94282 0,3.35322 -0.422668,3.1426 6.306392,3.1426 4.126139,0 5.848613,-0.09 6.076107,-0.3175 z m 17.825311,-0.12038 c 0.390422,-0.35333 0.483855,-0.8387 0.483855,-2.51354 0,-3.21809 0.179677,-3.134 -6.696305,-3.134 -4.364271,0 -5.750295,0.0821 -6.135165,0.36356 -0.431157,0.31527 -0.488631,0.67422 -0.432727,2.7026 0.03546,1.28648 0.191484,2.4921 0.346729,2.67915 0.214342,0.25827 1.686015,0.34011 6.116011,0.34011 5.057068,0 5.898166,-0.0583 6.317602,-0.43788 z m 17.434581,0.16399 c 0.447177,-0.23932 0.511773,-0.57139 0.511773,-2.63083 0,-3.28156 0.202682,-3.1807 -6.391647,-3.1807 -2.868564,0 -5.520978,0.11612 -5.894253,0.25804 -0.661552,0.25152 -0.678683,0.32031 -0.678683,2.72521 0,1.56613 0.115955,2.58312 0.3175,2.78467 0.409943,0.40994 11.377168,0.44935 12.13531,0.0436 z m 17.921355,-0.0436 c 0.20125,-0.20125 0.3175,-1.21502 0.3175,-2.76882 0,-2.15275 -0.0623,-2.48467 -0.51177,-2.7252 -0.30632,-0.16394 -2.74934,-0.2739 -6.08542,-0.2739 -6.758386,0 -6.631976,-0.0569 -6.631976,2.98384 0,3.22188 -0.260216,3.10158 6.708966,3.10158 4.2246,0 5.97479,-0.0896 6.2027,-0.3175 z m 17.56073,-0.12038 c 0.3921,-0.35484 0.48385,-0.84011 0.48385,-2.55886 0,-3.21447 0.26328,-3.08868 -6.46442,-3.08868 -6.9596,0 -6.76474,-0.0856 -6.76474,2.97073 0,3.24949 -0.28428,3.11469 6.56861,3.11469 4.92596,0 5.75803,-0.059 6.1767,-0.43788 z m 17.36427,0.12038 c 0.38235,-0.38235 0.43036,-4.65022 0.0589,-5.23875 -0.20658,-0.32732 -1.20689,-0.41116 -5.70753,-0.47836 -6.9321,-0.1035 -6.7339,-0.19408 -6.7339,3.07738 0,1.4534 0.11879,2.44102 0.3175,2.63973 0.4498,0.44979 11.61521,0.44979 12.065,0 z m 12.4235,-1.52879 c -0.58171,-0.45757 -0.68864,-0.8028 -0.85049,-2.7458 -0.22407,-2.68997 0.0223,-4.569038 0.68608,-5.232828 0.45348,-0.45347 0.99207,-0.49383 6.59127,-0.49383 h 6.09745 l 0.64943,0.64944 c 0.6179,0.6179 0.64943,0.80473 0.64943,3.848478 0,3.04374 -0.0315,3.23058 -0.64943,3.84848 l -0.64943,0.64943 h -5.92947 c -5.50697,0 -5.97688,-0.0373 -6.59484,-0.52337 z m 19.99203,0.25694 c -0.95135,-0.3833 -1.14179,-1.13027 -1.14179,-4.47867 0,-4.551766 -0.52466,-4.250728 7.40834,-4.250728 7.96834,0 7.40834,-0.33855 7.40834,4.478708 0,4.7708 0.40014,4.52227 -7.24558,4.50035 -3.21821,-0.009 -6.1114,-0.12157 -6.42931,-0.24966 z m 23.58474,-13.347576 c -0.61926,-0.619252 -0.64944,-0.800947 -0.64944,-3.909878 0,-4.836567 -0.73958,-4.436523 8.20209,-4.436523 8.93504,0 8.20208,-0.392197 8.20208,4.388815 0,2.84961 -0.062,3.291535 -0.54837,3.909878 l -0.54837,0.69714 h -7.00428 -7.00428 z M 107.6556,89.567229 c -1.59454,-1.341716 -1.57182,-1.10266 -1.57182,-16.54206 0,-8.419267 0.10449,-14.463644 0.25937,-15.003684 0.40006,-1.394936 1.47061,-2.336676 3.02113,-2.65763 0.92127,-0.190701 13.82169,-0.257052 40.64032,-0.209026 38.96534,0.06978 39.29829,0.07482 40.21667,0.608528 1.89998,1.10417 1.85121,0.655992 1.85167,17.016637 4.5e-4,16.206873 0.0259,15.952217 -1.6982,17.003566 -0.78792,0.480478 -2.15755,0.496974 -41.34201,0.49793 l -40.5271,9.89e-4 z m 77.274,-6.693083 c 0.50967,-0.509668 0.52917,-0.881944 0.52917,-10.103259 0,-9.465797 -0.007,-9.581019 -0.57529,-10.186458 l -0.57529,-0.612365 h -35.27575 c -34.92297,0 -35.28104,0.0053 -35.80491,0.529167 -0.50984,0.509836 -0.52917,0.881944 -0.52917,10.186458 0,9.304513 0.0193,9.676621 0.52917,10.186457 0.52388,0.523882 0.88194,0.529167 35.85103,0.529167 34.9691,0 35.32716,-0.0053 35.85104,-0.529167 z M 28.901129,83.035125 c -6.521015,-2.129545 -9.244728,-9.677049 -5.500235,-15.241343 0.868737,-1.290938 0.927001,-1.511706 0.932448,-3.533201 0.0088,-3.268691 1.193055,-5.384609 3.734456,-6.672435 2.701042,-1.368721 5.625211,-1.003592 7.76599,0.969709 1.5462,1.425237 2.266182,3.047286 2.447079,5.513023 0.127232,1.734249 0.253226,2.124553 0.941379,2.916196 0.436968,0.502683 1.104182,1.574245 1.482698,2.38125 0.589964,1.257815 0.688212,1.82611 0.688212,3.980823 0,2.173417 -0.09595,2.718263 -0.709099,4.026446 -0.981479,2.094047 -2.84998,4.005925 -4.902627,5.01644 -1.368144,0.673535 -2.094073,0.85282 -3.731948,0.921691 -1.240417,0.05216 -2.468217,-0.05649 -3.148353,-0.278599 z m 2.825426,-7.551917 c 0.157981,-0.295189 0.273893,-2.414669 0.273893,-5.008185 0,-4.868615 -0.125795,-5.327959 -1.459104,-5.327959 -1.288004,0 -1.451939,0.728519 -1.276091,5.670875 0.08836,2.48357 0.278261,4.664411 0.421992,4.846312 0.412059,0.521487 1.725743,0.404863 2.03931,-0.181043 z m 22.102017,7.396882 c -6.453063,-2.135299 -9.088871,-9.885276 -5.191743,-15.265105 0.634522,-0.875932 0.764858,-1.35765 0.88447,-3.268974 0.169665,-2.711138 0.838024,-4.294631 2.433349,-5.76515 2.248601,-2.072688 5.296376,-2.389661 8.020064,-0.834099 2.299046,1.31304 3.289653,3.075056 3.655692,6.502468 0.162092,1.517745 0.343096,2.00505 1.078397,2.903285 1.612305,1.969575 2.083933,3.373082 2.084155,6.202196 1.82e-4,2.311394 -0.07123,2.664195 -0.866078,4.27876 -2.217518,4.50442 -7.4646,6.779899 -12.098306,5.246619 z m 2.989791,-7.20261 c 0.223556,-0.223556 0.3175,-1.73449 0.3175,-5.106458 0,-5.127572 -0.07229,-5.423958 -1.322917,-5.423958 -1.250627,0 -1.322916,0.296386 -1.322916,5.423958 0,5.127573 0.07229,5.423958 1.322916,5.423958 0.378355,0 0.830792,-0.142875 1.005417,-0.3175 z m 22.472243,7.437953 c -2.635213,-0.620849 -5.299208,-2.831364 -6.602384,-5.478489 -0.786481,-1.597571 -0.867985,-1.987249 -0.867985,-4.149942 0,-2.062571 0.10092,-2.602365 0.742892,-3.973534 0.408591,-0.872696 0.959474,-1.825196 1.224184,-2.116666 0.357647,-0.393803 0.515172,-1.109385 0.613172,-2.785442 0.168656,-2.884436 0.90769,-4.668794 2.522349,-6.090073 1.182329,-1.040728 3.162074,-1.840889 4.554694,-1.840889 1.477881,0 3.490248,0.829551 4.696305,1.935941 1.539998,1.412735 2.188304,2.888124 2.379408,5.414968 0.130321,1.723134 0.272706,2.173059 0.981596,3.101755 2.070366,2.712327 2.711816,5.988194 1.767958,9.028906 -1.596004,5.141648 -6.833605,8.173525 -12.012189,6.953465 z m 2.663172,-7.437953 c 0.223556,-0.223556 0.3175,-1.73449 0.3175,-5.106458 0,-5.127572 -0.07229,-5.423958 -1.322916,-5.423958 -1.250628,0 -1.322917,0.296386 -1.322917,5.423958 0,5.127573 0.07229,5.423958 1.322917,5.423958 0.378354,0 0.830791,-0.142875 1.005416,-0.3175 z m 119.463442,5.342737 c -0.95186,-0.383507 -1.14179,-1.130522 -1.14179,-4.490703 0,-3.049446 0.0314,-3.235828 0.64944,-3.853852 l 0.64943,-0.649432 h 6.90322 6.90322 l 0.64943,0.649432 c 0.62075,0.620748 0.64943,0.796571 0.64943,3.980776 0,3.184206 -0.0287,3.360029 -0.64943,3.980777 l -0.64943,0.649432 -6.69275,-0.01677 c -3.68101,-0.0092 -6.95286,-0.121571 -7.27077,-0.249659 z m -0.49235,-13.612168 c -0.61791,-0.617904 -0.64944,-0.804737 -0.64944,-3.848485 0,-3.043747 0.0315,-3.230581 0.64944,-3.848484 l 0.64943,-0.649432 h 7.00428 7.00428 l 0.54837,0.697139 c 0.48398,0.615288 0.54837,1.061542 0.54837,3.800777 0,2.739235 -0.0644,3.185489 -0.54837,3.800777 l -0.54837,0.69714 h -7.00428 -7.00428 z"
       id="path1" /></g></svg>
