<?xml version="1.0" encoding="UTF-8" standalone="no"?>
<!-- Created with Inkscape (http://www.inkscape.org/) -->

<svg
   width="227.50578mm"
   height="211.35359mm"
   viewBox="0 0 227.50578 211.35359"
   version="1.1"
   id="svg1"
   xml:space="preserve"
   xmlns="http://www.w3.org/2000/svg"
   xmlns:svg="http://www.w3.org/2000/svg"><defs
     id="defs1" /><g
     id="layer1"
     transform="translate(4.22676,-41.517334)"><path
       style="fill:#000000"
       d="m 58.823274,252.5622 c -2.364652,-0.74239 -4.172117,-2.36162 -4.970909,-4.45323 -0.377253,-0.98782 -0.437478,-1.92463 -0.363235,-5.65021 0.0847,-4.25063 0.12425,-4.53784 0.819821,-5.95422 0.817242,-1.66413 2.703164,-3.57097 4.457118,-4.50656 1.138027,-0.60704 1.335592,-0.62151 9.553161,-0.69971 l 8.391102,-0.0798 0.169541,-0.97848 c 0.09325,-0.53817 0.583217,-3.18114 1.088822,-5.87328 1.008048,-5.36744 2.200057,-12.12354 2.200057,-12.46955 0,-0.12078 -16.46039,-0.25181 -36.578644,-0.29117 l -36.5786439,-0.0716 -1.7670753,-0.68792 c -4.87161893,-1.89651 -8.0489592,-5.54518 -9.0779511,-10.42458 -0.3388556,-1.60682 -0.3909201,-11.39954 -0.3931718,-73.95104 -0.00177,-49.065562 0.086094,-72.64837 0.2750211,-73.818741 0.3494807,-2.16498 1.7242609,-5.0553 3.20433397,-6.736752 C 0.724715,44.24295 3.0818845,42.730052 5.2725882,42.051552 7.0090483,41.51374 7.1539007,41.512999 109.5375,41.518209 c 94.30001,0.0048 102.64279,0.04008 103.98124,0.439682 4.52622,1.351334 7.4671,4.358558 9.16453,9.371281 0.47523,1.403412 0.49527,4.047252 0.56308,74.278708 0.0757,78.38494 0.13667,74.56093 -1.23803,77.62747 -1.51229,3.37345 -4.68595,6.27982 -8.30013,7.60106 l -1.90924,0.69796 -36.44635,0.0716 c -26.64961,0.0523 -36.44635,0.15112 -36.44635,0.36748 0,0.64365 2.61495,15.34672 3.31931,18.66351 l 0.12354,0.58174 8.53118,0.0797 8.53118,0.0797 1.40323,0.77737 c 1.74934,0.9691 3.08144,2.42332 3.98496,4.35025 0.65448,1.39581 0.70231,1.76539 0.78017,6.02908 0.0765,4.19131 0.0382,4.64613 -0.49644,5.8889 -0.68406,1.59015 -1.91994,2.74993 -3.94006,3.69744 l -1.46728,0.68821 -49.87396,0.0498 c -40.506991,0.0405 -50.081458,-0.0153 -50.978806,-0.29702 z M 158.78375,245.89 c 0.47584,-0.57275 0.65098,-4.8795 0.25251,-6.20948 -0.16445,-0.54888 -0.60985,-1.24248 -0.98977,-1.54133 l -0.69077,-0.54336 H 109.6248 c -43.89286,0 -47.784442,0.0351 -48.396588,0.43616 -1.134843,0.74358 -1.432376,1.68225 -1.432376,4.51891 0,1.92508 0.10693,2.75277 0.411878,3.18814 l 0.411878,0.58804 h 48.900518 c 45.14313,0 48.92841,-0.0336 49.26364,-0.43708 z m -23.43968,-15.23948 c -0.55337,-2.48285 -2.27741,-12.76921 -2.51661,-15.01511 -0.16274,-1.52797 -0.35213,-3.04601 -0.42088,-3.37343 l -0.125,-0.59532 H 109.5375 86.793417 l -0.118209,0.59532 c -0.06502,0.32742 -0.307542,2.11589 -0.53895,3.97439 -0.231408,1.85849 -0.894858,5.84061 -1.474332,8.84914 -0.579475,3.00853 -1.053591,5.62537 -1.053591,5.81519 0,0.28144 4.786151,0.34513 25.934205,0.34513 h 25.93421 z m 75.86011,-27.03427 c 1.45353,-0.51871 2.76735,-1.61778 3.44149,-2.87898 0.55563,-1.03948 0.59814,-1.48722 0.6769,-7.12842 l 0.084,-6.01927 H 109.55539 3.7041726 l 0.00258,5.75469 c 0.00247,5.50471 0.029969,5.8135 0.6329863,7.10857 0.6816631,1.46397 1.9480279,2.59848 3.531079,3.16341 1.4785552,0.52765 201.8548021,0.52765 203.3333621,0 z m 4.10264,-86.86885 -0.0683,-63.698436 -0.73464,-1.249739 c -0.47639,-0.810411 -1.17396,-1.50799 -1.98437,-1.984375 l -1.24974,-0.734636 -100.93854,-0.06948 C 40.964031,48.962991 8.973935,49.027668 8.0538109,49.21752 6.4119087,49.556298 4.8746237,50.762126 4.2049794,52.236497 3.7335199,53.27452 3.7155836,55.616884 3.7099834,116.87969 l -0.00581,63.56614 H 109.53964 215.37511 Z M 13.361464,173.04966 c -0.291042,-0.12038 -0.826823,-0.53914 -1.190625,-0.93057 l -0.661458,-0.7117 -0.06325,-56.00421 c -0.05022,-44.467092 0.0051,-56.138844 0.268438,-56.657734 0.182431,-0.359434 0.734518,-0.924981 1.226861,-1.25677 l 0.895169,-0.603254 H 109.3382 c 104.96627,0 96.6395,-0.133583 97.64373,1.566452 0.42164,0.713771 0.4514,4.448201 0.4514,56.641876 0,52.19368 -0.0298,55.92811 -0.4514,56.64188 -1.00443,1.70036 7.32591,1.56812 -97.61671,1.54968 -52.511018,-0.009 -95.71271,-0.11526 -96.003751,-0.23565 z M 71.966669,124.75104 V 82.020837 H 44.450004 16.933339 v 42.553813 c 0,23.4046 0.07937,42.6332 0.176388,42.73021 0.09701,0.097 12.479514,0.17639 27.516666,0.17639 h 27.340276 z m -44.980877,24.50137 c -2.081381,-0.66463 -3.447175,-2.06873 -3.83414,-3.94169 -0.441338,-2.13614 1.064926,-4.95406 3.155678,-5.90366 3.335712,-1.51505 6.671999,0.51633 7.202299,4.38529 0.232971,1.69971 -0.850527,3.86747 -2.374569,4.75082 -1.223773,0.70931 -3.129113,1.03499 -4.149268,0.70924 z m 15.031017,-0.30272 c -1.598929,-0.84445 -2.423235,-2.16192 -2.544533,-4.06687 -0.245411,-3.8541 2.829901,-6.66078 6.28559,-5.73652 4.655825,1.24524 5.405302,7.35648 1.194675,9.74137 -1.352414,0.76601 -3.550465,0.79363 -4.935732,0.062 z m 16.323819,-0.16359 c -3.645312,-1.91837 -4.023779,-6.59245 -0.722646,-8.92471 2.633159,-1.86034 6.440027,-0.84237 7.765943,2.07662 1.20904,2.6617 0.210932,5.40372 -2.468694,6.78205 -1.20436,0.6195 -3.461013,0.65207 -4.574603,0.066 z m -32.734127,-29.124 c -1.647661,-0.13032 -2.323163,-0.934 -2.323163,-2.76397 0,-1.02669 0.136247,-1.43551 0.649432,-1.9487 L 24.582202,114.3 H 36.644796 48.70739 l 0.649432,0.64943 c 0.514045,0.51405 0.649432,0.92162 0.649432,1.95507 0,1.61618 -0.548874,2.36131 -1.984375,2.69391 -0.9876,0.22883 -19.656959,0.28187 -22.415378,0.0637 z m -1.747876,-13.11821 c -0.856578,-0.91179 -0.815579,-3.14015 0.07415,-4.02987 l 0.649432,-0.64943 h 14.708427 14.708427 l 0.649432,0.64943 c 0.519431,0.51943 0.649432,0.91906 0.649432,1.9964 0,1.07734 -0.130001,1.47697 -0.649432,1.9964 l -0.649432,0.64943 H 39.216485 24.433913 Z m 0,-12.435419 c -0.767572,-0.817044 -0.806468,-3.012265 -0.0695,-3.922385 l 0.50579,-0.624624 H 44.450004 64.60509 l 0.505789,0.624624 c 0.763872,0.943341 0.703164,3.198753 -0.106575,3.959463 l -0.612365,0.575287 H 44.412926 24.433913 Z m 73.243459,69.139449 v -4.23334 h -8.429738 c -4.636356,0 -8.982137,0.0757 -9.657291,0.16826 l -1.227553,0.16825 v 4.06508 4.06508 h 9.657291 9.657291 z m 20.637496,0 v -4.23334 h -8.59895 -8.59896 v 4.23334 4.23333 h 8.59896 8.59895 z m 20.6375,0.13229 v -4.10104 h -8.46666 -8.46667 v 4.10104 4.10104 h 8.46667 8.46666 z m 20.63616,-0.0661 -0.001,-4.16719 -8.46533,-0.0494 -8.46532,-0.0494 v 4.21656 4.21657 h 8.46666 8.46667 z m 20.37426,-0.0661 v -4.23334 h -8.33438 -8.33437 v 4.23334 4.23333 h 8.33437 8.33438 z m 22.48958,0 v -4.23334 h -9.525 -9.525 v 4.23334 4.23333 h 9.525 9.525 z M 97.102084,150.94479 v -4.63021 h -9.657291 -9.657291 v 4.63021 4.63021 h 9.657291 9.657291 z m 20.637496,0 v -4.63021 h -8.59895 -8.59896 v 4.63021 4.63021 h 8.59896 8.59895 z m 41.275,0 v -4.63021 h -8.46667 -8.46666 v 4.63021 4.63021 h 8.46666 8.46667 z m 20.37292,0 v -4.63021 h -8.33438 -8.33437 v 4.63021 4.63021 h 8.33437 8.33438 z m 22.48958,0 v -4.63021 h -9.525 -9.525 v 4.63021 4.63021 h 9.525 9.525 z m -104.774996,-12.7 v -4.63021 h -9.789582 -9.789583 v 4.63021 4.63021 h 9.789583 9.789582 z m 41.274996,0 v -4.63021 h -8.46666 -8.46667 v 4.63021 4.63021 h 8.46667 8.46666 z m 20.63751,-0.0661 -1e-5,-4.56407 h -8.46667 -8.46666 l 10e-6,4.56407 v 4.56406 h 8.46667 8.46666 z m 20.37291,0.0661 v -4.63021 h -8.33438 -8.33437 v 4.63021 4.63021 h 8.33437 8.33438 z m -41.01042,-12.7 v -4.63021 h -8.46666 -8.46667 v 4.63021 4.63021 h 8.46667 8.46666 z m 20.6375,0 v -4.63021 h -8.46667 -8.46666 v 4.63021 4.63021 h 8.46666 8.46667 z m -41.275,-0.13229 v -4.49792 h -8.59895 -8.59896 v 4.49792 4.49792 h 8.59896 8.59895 z m 84.1375,0 v -4.49792 h -9.525 -9.525 v 4.49792 4.49792 h 9.525 9.525 z m -84.1375,-12.56771 v -4.6302 h -8.59895 -8.59896 v 4.45381 c 0,2.44961 0.0794,4.5332 0.17639,4.63021 0.097,0.097 3.96654,0.17639 8.59895,0.17639 h 8.42257 z m 20.6375,0 v -4.6302 h -8.46666 -8.46667 v 4.6302 4.63021 h 8.46667 8.46666 z m 41.01042,0 v -4.6302 h -8.33438 -8.33437 v 4.6302 4.63021 h 8.33437 8.33438 z m 18.05781,4.43081 4.43177,-0.1339 v -4.46356 -4.46355 h -9.525 -9.525 v 4.63943 4.63944 l 5.09323,-0.042 c 2.80127,-0.0231 7.08752,-0.10224 9.525,-0.17588 z M 97.102084,112.7125 v -4.49791 h -9.789582 -9.789583 v 4.49791 4.49792 h 9.789583 9.789582 z m 0,-12.56771 v -4.630204 h -9.789582 -9.789583 v 4.630204 4.63021 h 9.789583 9.789582 z m 20.637496,0 v -4.630204 h -8.59895 -8.59896 v 4.630204 4.63021 h 8.59896 8.59895 z m 61.64792,0 v -4.630204 h -8.33438 -8.33437 v 4.630204 4.63021 h 8.33437 8.33438 z m 22.48958,0 v -4.630204 h -9.525 -9.525 v 4.630204 4.63021 h 9.525 9.525 z m -42.8625,-0.13229 v -4.497914 h -8.46667 -8.46666 v 4.497914 4.49792 h 8.46666 8.46667 z M 97.041907,87.114066 97.114022,82.28542 H 87.31847 77.522919 v 4.758981 4.75898 l 8.929687,0.06967 c 4.911328,0.03832 9.286874,0.06967 9.723437,0.06967 h 0.79375 z M 179.3875,87.032305 V 82.28542 h -8.33438 -8.33437 v 4.758676 4.758676 l 8.13593,0.06997 c 4.47477,0.03848 8.22524,0.03318 8.33438,-0.01179 0.10914,-0.04497 0.19844,-2.217859 0.19844,-4.828647 z m 13.69218,4.811882 8.7974,-0.03377 v -4.7625 -4.7625 h -9.525 -9.525 v 4.718403 c 0,2.595121 0.063,4.781357 0.1399,4.858301 0.0769,0.07695 0.40437,0.111984 0.7276,0.07786 0.32324,-0.03412 4.54654,-0.07723 9.3851,-0.0958 z m -75.3401,-4.796267 v -4.7625 h -8.59895 -8.59896 v 4.7625 4.7625 h 8.59896 8.59895 z m 20.6375,0 v -4.7625 h -8.46666 -8.46667 v 4.7625 4.7625 h 8.46667 8.46666 z m 20.6375,0 v -4.7625 h -8.46667 -8.46666 v 4.7625 4.7625 h 8.46666 8.46667 z m 42.8625,-17.462499 V 62.706255 H 109.40521 16.933339 v 6.879166 6.879166 h 92.471871 92.47187 z m -34.31239,2.11482 C 166.7381,71.3672 166.34205,70.4626 166.5017,69.27232 c 0.24615,-1.835166 0.1314,-1.803566 6.5493,-1.803566 6.61113,0 6.60381,-0.0023 6.59703,2.06942 -0.005,1.47283 -0.16618,1.775959 -1.14304,2.147361 -0.89114,0.338813 -10.10514,0.351198 -10.9403,0.01471 z m 16.66875,0.01414 c -1.13929,-0.486908 -1.54095,-2.499653 -0.7299,-3.657591 0.34445,-0.491774 0.66103,-0.588039 1.93381,-0.588039 1.92033,0 2.43396,0.369211 2.60327,1.871287 0.18166,1.611661 -0.44115,2.377008 -2.04898,2.517932 -0.6491,0.05689 -1.44029,-0.0077 -1.7582,-0.143589 z m 8.38322,0.08288 c -0.72841,-0.286408 -1.05833,-0.978892 -1.05833,-2.221406 0,-1.652503 0.5216,-2.107104 2.41766,-2.107104 1.99282,0 2.4059,0.359773 2.4059,2.095462 0,0.904919 -0.14349,1.539944 -0.40765,1.804105 -0.42017,0.420172 -2.65406,0.705559 -3.35758,0.428943 z"
       id="path1" /></g></svg>
