<?xml version="1.0" encoding="UTF-8" standalone="no"?>
<!-- Created with Inkscape (http://www.inkscape.org/) -->

<svg
   width="224.06471mm"
   height="208.24768mm"
   viewBox="0 0 224.06471 208.24768"
   version="1.1"
   id="svg1"
   xml:space="preserve"
   xmlns="http://www.w3.org/2000/svg"
   xmlns:svg="http://www.w3.org/2000/svg"><defs
     id="defs1" /><g
     id="layer1"
     transform="translate(-1.8913089,-6.6175416)"><path
       style="fill:#000000"
       d="M 13.758339,214.42889 C 8.7543343,213.35028 4.6690835,209.76531 2.6207229,204.6552 L 1.9843818,203.0677 1.916385,110.20666 C 1.854154,25.219854 1.8847284,17.232782 2.276949,16.014996 3.6345549,11.799837 7.5019556,8.1352971 11.764588,7.0250223 13.175102,6.6576303 23.843538,6.6149987 113.49569,6.6184994 c 110.44017,0.00431 101.76476,-0.131752 105.15781,1.6492855 2.08738,1.0956822 4.88775,3.8789151 5.79057,5.7551371 1.62758,3.382417 1.51009,-4.0935101 1.51009,96.086308 0,65.34752 -0.0829,91.87771 -0.29024,92.8793 -1.13863,5.50043 -6.01012,10.25035 -11.7483,11.45509 -2.72273,0.57165 -197.50342,0.55731 -200.157281,-0.0147 z m 12.244072,-6.4413 c 0.742694,-0.12219 1.421125,-0.41573 1.645231,-0.71183 0.324339,-0.42854 0.382626,-3.58008 0.389782,-21.07524 l 0.0084,-20.57136 h -1.980201 c -1.814181,0 -2.052644,-0.0647 -2.844271,-0.7722 l -0.86407,-0.7722 -0.04146,-20.41388 c -0.02281,-11.22764 -0.09195,-20.46436 -0.153642,-20.52606 -0.0617,-0.0617 -3.059969,-0.12135 -6.662827,-0.13255 -5.9004272,-0.0184 -6.6017543,0.0259 -7.0654913,0.44554 -0.5062231,0.45812 -0.5135564,1.10613 -0.4381248,38.71499 l 0.076716,38.24907 0.5967108,1.76036 c 0.9498448,2.80214 3.3914423,5.155 6.0152073,5.79659 1.071625,0.26204 9.737833,0.26876 11.31803,0.009 z m 22.838357,-0.31737 c 0.486598,-0.53761 0.504028,-1.27187 0.504028,-21.23281 v -20.67595 l -1.928581,-0.15 c -1.509148,-0.11737 -2.0558,-0.27719 -2.513542,-0.73487 l -0.58496,-0.58488 -0.132292,-20.56408 -0.132291,-20.56409 -3.004839,-0.0751 c -1.988951,-0.0497 -3.129455,0.0283 -3.373437,0.23083 -0.30882,0.2563 -0.369623,3.44379 -0.374911,19.65424 -0.0035,10.64158 -0.114049,19.81279 -0.245728,20.38046 -0.371918,1.60335 -1.020369,2.07362 -3.106358,2.25277 l -1.800977,0.15469 -0.07884,19.04999 c -0.04336,10.4775 -0.003,19.80476 0.08973,20.72723 0.281682,2.80269 -0.0873,2.6884 8.67935,2.6884 7.287902,0 7.513846,-0.0157 8.003645,-0.55686 z m 19.811526,0.30051 c 0.578187,-0.13405 1.203265,-0.45163 1.389062,-0.70572 0.270639,-0.37012 0.337814,-8.73658 0.337814,-42.07398 0,-40.86977 -0.0091,-41.61688 -0.511773,-41.88589 -0.301445,-0.16133 -2.584938,-0.27389 -5.556249,-0.27389 H 59.26667 l -9.89e-4,20.30677 c -9.6e-4,19.72045 -0.016,20.33139 -0.520959,21.15956 -0.590789,0.96895 -0.990334,1.10253 -3.579093,1.19658 l -1.852083,0.0673 v 20.79533 c 0,17.23686 0.06214,20.8702 0.363126,21.23281 0.320732,0.3864 1.154743,0.43674 7.143749,0.43117 3.729343,-0.003 7.253686,-0.11599 7.831873,-0.25004 z m 22.027546,-0.45951 c 0.438917,-0.66977 0.46912,-2.03679 0.46912,-21.23281 v -20.51695 l -1.587499,-0.0681 c -2.253694,-0.0967 -2.71088,-0.24478 -3.237799,-1.0488 -0.432219,-0.65952 -0.476055,-2.20424 -0.59866,-21.09632 l -0.132291,-20.38469 -5.047198,-0.0717 c -4.594518,-0.0653 -5.086197,-0.0286 -5.482036,0.4088 -0.397564,0.4393 -0.443719,3.42799 -0.538416,34.8644 -0.05697,18.91115 -0.03083,37.61616 0.05808,41.56667 0.147656,6.56078 0.2053,7.23093 0.665683,7.73906 0.488782,0.53948 0.722688,0.55631 7.732962,0.55631 h 7.228935 z m 21.3562,0.12782 c 0.36427,-0.52006 0.41188,-2.98218 0.41188,-21.29896 v -20.71092 h -1.73293 c -1.85183,0 -3.10864,-0.45928 -3.41229,-1.24698 -0.10025,-0.26005 -0.17079,-9.28343 -0.15677,-20.05197 0.014,-10.76854 -0.0523,-19.96612 -0.14746,-20.43907 l -0.17295,-0.85989 h -3.08901 c -2.04978,0 -3.19582,0.10681 -3.40651,0.3175 -0.24107,0.24107 -0.31902,5.00187 -0.32381,19.7776 -0.003,10.70306 -0.113774,19.92334 -0.245117,20.48952 -0.353705,1.52472 -0.833867,1.86199 -2.866331,2.01329 l -1.777032,0.1323 -0.06776,20.53362 c -0.06746,20.44288 -0.06533,20.53671 0.482224,21.23281 l 0.549984,0.69919 h 7.771002 c 7.7304,0 7.77315,-0.003 8.18288,-0.58804 z m 20.6525,0.17142 c 0.5213,-0.39385 0.52917,-0.70945 0.52917,-21.2244 v -20.8246 l -1.32292,-0.0691 c -2.03654,-0.10644 -2.47163,-0.27298 -2.9056,-1.11218 -0.34874,-0.67438 -0.40169,-3.3967 -0.40169,-20.65106 0,-13.61598 -0.0892,-20.04094 -0.28323,-20.40351 -0.25563,-0.47765 -0.51993,-0.52335 -2.71198,-0.46892 -1.33581,0.0332 -2.69664,0.15714 -3.02406,0.27549 l -0.59531,0.21518 -0.001,19.51957 c -9.2e-4,12.19737 -0.10073,19.87688 -0.26607,20.47209 -0.4125,1.48499 -1.06925,1.90434 -3.248,2.07393 l -1.90841,0.14855 -0.18355,2.64583 c -0.10095,1.45521 -0.16048,10.75942 -0.13229,20.67602 0.0492,17.32015 0.0711,18.05212 0.55528,18.58698 0.48995,0.54123 0.71175,0.55655 7.9375,0.54837 6.21253,-0.007 7.52039,-0.0741 7.96264,-0.4082 z m 20.68659,-0.15867 0.61237,-0.57529 v -41.53877 c 0,-38.28097 -0.0343,-41.57672 -0.43788,-42.02263 -0.39101,-0.43206 -0.90788,-0.48342 -4.82865,-0.4798 -2.41492,0.002 -4.56936,0.11691 -4.78764,0.25485 -0.34527,0.21818 -0.41407,2.90011 -0.52916,20.62622 l -0.1323,20.37544 -0.60147,0.60253 c -0.51391,0.51483 -0.95682,0.62179 -3.0427,0.73482 l -2.44124,0.1323 0.0341,20.71352 c 0.032,19.44453 0.0629,20.74534 0.50403,21.23281 0.44528,0.49204 0.85216,0.51929 7.75407,0.51929 7.11464,0 7.29838,-0.0134 7.89649,-0.57529 z m 20.61355,0.018 c 0.48788,-0.53939 0.5016,-1.21095 0.42839,-20.96823 -0.0416,-11.22604 -0.0714,-20.55982 -0.0661,-20.74172 0.007,-0.23155 -0.50496,-0.33073 -1.70612,-0.33073 -1.49838,0 -1.81888,-0.0923 -2.53112,-0.72865 -0.69607,-0.62194 -0.85041,-0.99973 -1.05385,-2.57968 -0.13109,-1.01807 -0.24225,-10.27471 -0.24701,-20.57031 l -0.009,-18.71927 h -5.00818 c -4.20012,0 -5.07527,0.0671 -5.42396,0.41577 -0.37445,0.37445 -0.41577,4.54984 -0.41577,42.00988 0,37.21769 0.0433,41.65597 0.41188,42.18214 0.40882,0.58367 0.46645,0.58804 7.7642,0.58804 7.13984,0 7.36689,-0.0161 7.85635,-0.55724 z m 21.1571,0.18173 c 0.50088,-0.36621 0.51359,-0.89171 0.51359,-21.23281 v -20.8573 l -1.89146,-0.1323 c -2.16581,-0.15148 -2.84768,-0.588 -3.26495,-2.09018 -0.16532,-0.59513 -0.26515,-8.26174 -0.26607,-20.43315 -10e-4,-16.32784 -0.0611,-19.53013 -0.37008,-19.78653 -0.24398,-0.20249 -1.38448,-0.28053 -3.37343,-0.23083 l -3.00484,0.0751 -0.13229,20.82279 c -0.10526,16.56733 -0.20242,20.89306 -0.47543,21.16666 -0.18873,0.18914 -1.20076,0.40341 -2.24896,0.47617 l -1.90582,0.1323 -0.0677,20.81543 c -0.0607,18.66238 -0.0246,20.85862 0.34962,21.23282 0.36075,0.36074 1.44902,0.41737 8.02082,0.41737 6.14868,0 7.70172,-0.0719 8.11704,-0.37551 z m 18.5452,-0.24198 c 3.04644,-0.99647 5.31126,-3.30568 5.89033,-6.00581 0.19934,-0.92946 0.28744,-13.042 0.28744,-39.51851 v -38.17826 l -0.55671,-0.50402 c -0.51015,-0.46188 -1.08126,-0.5091 -6.82829,-0.56458 -5.27981,-0.051 -6.36331,0.004 -6.85163,0.34573 l -0.58004,0.40628 v 20.36994 20.36994 l -0.64943,0.64943 c -0.57476,0.57476 -0.87898,0.64943 -2.64584,0.64943 h -1.9964 v 20.88319 c 0,19.06799 0.038,20.92119 0.4373,21.32048 0.38713,0.38712 1.10807,0.42498 6.28385,0.32992 4.54113,-0.0834 6.15086,-0.20692 7.20942,-0.55316 z m -11.94619,-91.0471 c 14.49457,-0.19354 17.20645,-0.32445 17.73828,-0.85628 0.34656,-0.34656 0.38552,-6.21083 0.32368,-48.723531 l -0.0703,-48.329549 -0.63218,-1.399031 c -0.76913,-1.702104 -2.52635,-3.315943 -4.22479,-3.880073 -1.11901,-0.371676 -11.24756,-0.4061 -101.51282,-0.345008 -94.815533,0.06417 -100.323214,0.09302 -101.252117,0.530318 -1.390616,0.654662 -2.788463,1.952316 -3.4650201,3.21666 L 8.0697981,17.85938 8.0008843,66.576126 c -0.079712,56.350334 -0.470163,49.873724 3.0214257,50.117934 2.744666,0.19197 175.41321,0.0729 190.72248,-0.13157 z M 15.187,109.69142 c -0.451164,-0.19781 -0.897649,-0.56123 -0.992188,-0.8076 -0.300019,-0.78183 -0.197432,-41.709338 0.107297,-42.806632 0.521623,-1.878303 -2.23006,-1.750665 35.968729,-1.668422 37.204731,0.0801 35.785898,0.02319 36.188112,1.4517 0.105652,0.375235 0.192094,10.174159 0.192094,21.775388 V 108.729 l -0.602615,0.60269 -0.602615,0.60268 -34.719258,0.0584 c -28.782054,0.0484 -34.859534,-0.003 -35.539556,-0.30131 z m 65.491848,-5.6911 c 0.280552,-0.28055 0.596553,-1.08422 0.702224,-1.78594 0.105671,-0.70171 0.108976,-8.002057 0.0073,-16.22299 C 81.23361,73.469259 81.140155,70.947362 80.812384,70.44712 l -0.391247,-0.597118 h -29.9831 -29.9831 l -0.504028,0.556724 c -0.480739,0.531 -0.507578,1.228881 -0.580858,15.103436 -0.07966,15.082288 0.06453,18.046698 0.907769,18.663288 0.366731,0.26816 6.528238,0.33697 30.175879,0.33697 28.99194,0 29.727467,-0.0124 30.225149,-0.5101 z M 50.403129,99.644013 c -1.126247,-0.493455 -2.424458,-1.910231 -3.196717,-3.488673 -0.649964,-1.328479 -1.50985,-4.580729 -2.842645,-10.751422 -0.784257,-3.631024 -1.165934,-4.543959 -1.946389,-4.655586 -0.818867,-0.117122 -1.683775,1.510497 -2.855472,5.373544 -3.194723,10.5329 -3.885177,11.997018 -6.043188,12.814666 -2.272596,0.861064 -4.341004,-0.109895 -7.325825,-3.438911 -2.518181,-2.808565 -3.031248,-3.788325 -2.612643,-4.989134 0.321046,-0.920955 1.093463,-1.233097 2.424802,-0.979889 0.62527,0.118921 1.422167,0.774559 3.012524,2.478522 1.862209,1.995234 2.229473,2.276658 2.645833,2.027432 0.646474,-0.386967 1.407113,-2.3469 2.874002,-7.405413 1.709852,-5.896363 2.170111,-7.077626 3.248608,-8.337607 1.217711,-1.422621 2.671384,-2.078323 4.624005,-2.08573 3.683197,-0.01397 5.348301,2.148322 6.543156,8.496896 0.738714,3.924983 1.756053,8.044404 2.295807,9.29621 0.43187,1.0016 1.254487,1.466256 2.05321,1.159757 0.527501,-0.202421 1.509368,-2.231391 2.388531,-4.935758 2.077026,-6.389074 3.263142,-7.85477 6.469373,-7.994275 1.830802,-0.07966 2.31524,0.354344 4.89149,4.382246 1.195852,1.869685 2.476577,3.774685 2.846055,4.233333 l 0.671778,0.833905 0.89706,-0.459555 c 0.493384,-0.252755 1.197509,-0.702348 1.564723,-0.999095 0.953576,-0.770587 2.467414,-0.964008 3.295963,-0.421121 0.542908,0.355726 0.666583,0.649816 0.666583,1.585081 0,1.036987 -0.128582,1.268593 -1.326241,2.388863 -0.729433,0.682299 -1.949824,1.530866 -2.71198,1.885704 -3.298785,1.535824 -4.993296,0.546392 -8.665513,-5.059829 -1.192879,-1.821118 -2.305113,-3.266376 -2.471631,-3.211683 -0.166517,0.05469 -0.909013,1.816591 -1.649989,3.915329 -1.997767,5.65847 -2.906098,7.179361 -4.89322,8.193116 -1.189509,0.606844 -3.655073,0.682284 -4.87205,0.149077 z m 54.826291,6.180577 c -2.49797,-0.62685 -4.41422,-2.13807 -5.459629,-4.30565 -1.049698,-2.176474 -1.234684,-3.668715 -0.709111,-5.720229 1.64777,-6.431857 9.34079,-8.522132 14.04638,-3.816546 2.07404,2.074043 2.83681,5.688442 1.82633,8.654055 -0.5755,1.68898 -2.654,3.91848 -4.32211,4.63607 -1.53808,0.66167 -3.95687,0.90989 -5.38186,0.5523 z m 24.49957,-0.20126 c -2.04437,-0.73147 -3.4153,-1.75157 -4.43389,-3.29923 -2.80812,-4.266716 -1.31717,-9.784345 3.24992,-12.027157 1.25878,-0.618159 1.83534,-0.735484 3.61435,-0.735484 1.77902,0 2.35558,0.117325 3.61436,0.735484 1.72729,0.848239 3.2139,2.375043 4.01827,4.126921 0.87701,1.910069 0.80009,4.986681 -0.17427,6.970886 -1.78305,3.63101 -6.23645,5.53536 -9.88874,4.22858 z m 25.30376,0.11423 c -2.26052,-0.60967 -4.17395,-2.19249 -5.32164,-4.40214 -0.5212,-1.00348 -0.6184,-1.585715 -0.6184,-3.70417 0,-2.297614 0.0682,-2.636789 0.79375,-3.948232 3.39481,-6.136076 12.73469,-5.394487 15.20472,1.20726 1.69003,4.517033 -0.80601,9.378202 -5.53674,10.783072 -1.67152,0.49639 -2.85684,0.51322 -4.52169,0.0642 z m 37.31933,5.1e-4 c -5.28605,-1.43903 -8.53247,-6.048217 -8.11934,-11.527637 0.46972,-6.229959 6.48549,-10.952962 12.53193,-9.838862 4.49586,0.828395 7.83043,3.847475 8.93511,8.089748 0.73545,2.824312 0.39962,5.379964 -1.05915,8.060211 -2.26714,4.16548 -7.6913,6.46807 -12.28855,5.21654 z m 4.44982,-15.201707 c 0.11116,-1.158023 -0.33284,-1.636362 -1.51888,-1.636362 -1.48609,0 -1.87817,0.577923 -1.34446,1.981689 0.24035,0.632169 0.37433,0.686115 1.52135,0.612537 1.21172,-0.07773 1.26088,-0.112814 1.34199,-0.957864 z M 105.07842,79.355146 c -2.34313,-0.460695 -4.58749,-2.295147 -5.640519,-4.610353 -0.838137,-1.842733 -0.827721,-4.506667 0.02512,-6.423932 0.763829,-1.71718 2.736259,-3.556366 4.434609,-4.135052 1.56179,-0.532155 4.26849,-0.542195 5.57192,-0.02067 l 1.00108,0.400556 -1.45875,1.519156 c -0.80231,0.835536 -1.78618,1.664765 -2.18636,1.84273 -1.21781,0.541574 -0.85401,2.187002 0.48354,2.187002 0.60589,0 1.36505,-0.686999 1.07723,-0.974823 -0.0926,-0.09256 0.40416,-0.77429 1.10381,-1.514961 0.69966,-0.74067 1.40479,-1.584611 1.56695,-1.875424 0.29372,-0.526736 0.29769,-0.52664 1.04129,0.02536 0.41055,0.304762 1.13341,1.297243 1.60635,2.205513 0.72154,1.385689 0.85989,1.938098 0.85989,3.433234 0,2.221732 -0.55004,3.877387 -1.75636,5.286698 -1.16653,1.362831 -2.72508,2.271956 -4.54051,2.64855 -1.56106,0.323827 -1.57475,0.323855 -3.18929,0.0064 z m 20.68663,-0.189232 c -3.66877,-1.311007 -5.60269,-4.288673 -5.3223,-8.194749 0.16134,-2.247609 0.84106,-3.600858 2.60547,-5.187213 3.81686,-3.431689 9.65122,-2.300957 12.10623,2.346258 0.93464,1.769231 0.99781,4.910059 0.1365,6.786342 -1.63274,3.556768 -6.00546,5.50737 -9.5259,4.249362 z m 3.01836,-8.588308 c 0.14338,-0.181901 0.83331,-1.448425 1.53317,-2.814497 1.21344,-2.368533 1.24961,-2.500494 0.77946,-2.844271 -0.27116,-0.198276 -0.58259,-0.360502 -0.69206,-0.360502 -0.21285,0 -3.1394,5.044731 -3.1394,5.411637 0,0.229096 0.80602,0.91545 1.09209,0.929948 0.0913,0.0046 0.28335,-0.140414 0.42674,-0.322315 z m 17.49631,8.1982 c -5.80602,-3.005592 -5.67359,-11.239158 0.22722,-14.126154 1.99174,-0.974471 4.59799,-1.029773 6.55452,-0.13908 5.32048,2.422108 6.42452,9.429732 2.08713,13.24765 -1.49048,1.311974 -3.13035,1.881363 -5.41844,1.881363 -1.49479,0 -2.05063,-0.13915 -3.45043,-0.863779 z m 4.37773,-8.719355 c 0.42493,-1.21549 -1.03802,-2.347132 -1.9087,-1.476449 -0.41417,0.414165 -0.40748,1.603355 0.0114,2.022204 0.55904,0.559041 1.61754,0.254571 1.89733,-0.545755 z m 19.69738,5.637924 -0.62462,-0.505626 -0.0754,-13.51729 -0.0754,-13.517289 h -1.01343 c -2.71418,0 -4.13127,-3.601659 -2.60615,-6.623767 0.66359,-1.31492 1.46543,-1.833301 2.84427,-1.838775 l 0.92605,-0.0037 -0.0852,-7.21012 c -0.054,-4.5732 0.0177,-7.557049 0.19601,-8.158727 0.46723,-1.576314 2.20402,-2.052261 3.34078,-0.915502 l 0.64943,0.649432 v 7.817234 7.817234 h 1.15494 c 2.18134,0 3.34357,1.536645 3.34199,4.418632 -0.002,2.784528 -0.68694,3.659095 -3.30631,4.218775 l -1.05833,0.226135 -0.13229,13.318835 -0.13229,13.318835 -0.62463,0.505643 c -0.7977,0.645752 -1.92178,0.645759 -2.7195,1.7e-5 z m 16.72479,-0.191513 c -0.52645,-0.669274 -0.54837,-1.007216 -0.54837,-8.454677 v -7.757538 l -0.99219,-0.165948 c -2.80189,-0.468631 -3.38521,-1.155815 -3.34702,-3.943026 0.0207,-1.507576 0.16573,-2.181469 0.66495,-3.088824 0.61326,-1.114654 0.69593,-1.165787 2.09024,-1.292846 l 1.45173,-0.132292 0.13229,-13.451124 0.13229,-13.451125 0.62462,-0.505645 c 0.86966,-0.704005 2.03865,-0.644548 2.82699,0.143786 l 0.64943,0.649432 v 13.373484 13.373484 h 1.28724 c 1.6364,0 2.48977,0.641587 3.05335,2.295598 0.72916,2.139982 0.39707,4.729483 -0.70558,5.501809 -0.31776,0.222572 -1.12276,0.404676 -1.78888,0.404676 -0.66612,0 -1.354,0.142875 -1.52863,0.3175 -0.23227,0.232268 -0.3175,2.366283 -0.3175,7.949526 v 7.632026 l -0.64943,0.649432 c -0.91044,0.910442 -2.29902,0.888618 -3.03553,-0.04771 z m 17.03439,0.04771 -0.64943,-0.649432 V 60.764763 46.628387 l -0.59531,-0.159537 c -0.32742,-0.08775 -0.85657,-0.161164 -1.17587,-0.163151 -0.31931,-0.002 -0.88874,-0.271503 -1.2654,-0.598925 -0.65664,-0.570798 -0.68618,-0.718098 -0.71742,-3.577108 -0.0302,-2.764634 0.0114,-3.028631 0.57159,-3.624904 0.43771,-0.465922 0.94112,-0.664947 1.82715,-0.722371 l 1.22297,-0.07926 0.13229,-6.969101 c 0.13158,-6.931396 0.13567,-6.971835 0.75692,-7.474479 0.7977,-0.645419 1.92179,-0.645419 2.7195,0 0.62124,0.502644 0.62534,0.543083 0.75691,7.474479 l 0.13229,6.969101 1.64645,0.132291 c 1.24526,0.100057 1.79325,0.279075 2.24896,0.734686 0.55356,0.553449 0.60251,0.837644 0.60251,3.497812 0,3.646892 -0.25708,4.017355 -2.90487,4.185953 l -1.72534,0.109861 v 14.220995 c 0,13.986367 -0.009,14.232497 -0.54837,14.918135 -0.73651,0.936326 -2.12509,0.95815 -3.03553,0.04771 z M 22.874438,59.940154 c -1.406327,-1.406327 -0.48216,-3.054735 1.712614,-3.054735 1.093285,0 1.392224,0.112523 1.852083,0.69714 0.720134,0.915502 0.692326,1.564207 -0.101061,2.357595 -0.902491,0.90249 -2.561146,0.90249 -3.463636,0 z m 25.627758,0.383002 c -1.167385,-0.470351 -1.495063,-2.026115 -0.612608,-2.90857 0.388055,-0.388056 0.881944,-0.529167 1.852083,-0.529167 2.213965,0 3.144751,1.641802 1.731818,3.054735 -0.681175,0.681175 -1.855535,0.832551 -2.971293,0.383002 z m 24.806594,-0.43071 c -1.190475,-1.513443 -0.297876,-3.007027 1.797066,-3.007027 2.159944,0 3.135852,1.686515 1.767632,3.054735 -0.947413,0.947413 -2.801455,0.922599 -3.564698,-0.04771 z M 98.669848,54.200332 C 98.209046,54.105981 97.578492,53.775231 97.268618,53.46533 96.707105,52.903769 96.70521,52.851651 96.70521,37.966285 v -14.93559 l 0.733574,-0.733575 0.733573,-0.733574 28.614383,-0.06966 28.61438,-0.06966 0.61651,0.579178 c 0.33908,0.318547 0.73472,1.004737 0.87921,1.524866 0.15839,0.570151 0.26329,6.438831 0.26418,14.778665 0.002,15.472938 -0.003,15.513725 -1.63208,15.78075 -1.27367,0.208712 -55.861726,0.316856 -56.859092,0.112643 z m 51.831862,-6.415731 c 0.21417,-0.214171 0.48368,-0.962774 0.59891,-1.663562 0.26236,-1.59562 0.26402,-13.960442 0.002,-16.062739 -0.34719,-2.787342 1.99375,-2.541629 -24.21448,-2.541629 -22.24023,0 -22.82102,0.01282 -23.3606,0.515516 -0.76158,0.709524 -0.96056,3.714781 -0.82616,12.478299 0.10039,6.546121 0.13415,6.933165 0.64049,7.343164 0.48695,0.39429 2.59206,0.427807 23.65241,0.376582 19.94734,-0.04852 23.17128,-0.109634 23.50728,-0.445631 z M 22.489589,48.582012 c -3.118659,-0.689135 -5.315667,-2.379476 -6.671006,-5.13256 -0.776863,-1.578032 -0.869619,-2.00692 -0.869619,-4.020968 0,-1.951843 0.10008,-2.44989 0.745451,-3.70973 0.409998,-0.800365 1.143876,-1.871927 1.630839,-2.38125 0.869114,-0.90902 0.880884,-0.95279 0.64033,-2.38125 -0.926689,-5.502891 3.483687,-9.487074 8.757338,-7.91108 0.767021,0.229219 1.632218,0.795525 2.431812,1.59172 1.563155,1.55651 2.214735,3.501905 1.966945,5.872626 -0.160201,1.532718 -0.139343,1.602092 0.791445,2.632362 0.52579,0.581987 1.269731,1.72729 1.653202,2.545119 0.992882,2.117517 0.989602,5.32141 -0.0076,7.471839 -1.349387,2.909758 -3.968394,4.906749 -7.215077,5.50149 -1.856551,0.340091 -1.971041,0.337764 -3.854011,-0.07832 z m 2.360318,-7.240863 0.566858,-0.463021 -0.381509,-4.706778 c -0.222367,-2.743397 -0.515297,-4.867982 -0.702235,-5.093229 -0.176399,-0.212548 -0.665887,-0.38645 -1.087751,-0.38645 -1.252887,0 -1.351251,0.608401 -0.937035,5.795787 0.311521,3.901308 0.442089,4.659539 0.854275,4.960937 0.645106,0.471713 1.00674,0.448729 1.687397,-0.107246 z m 23.039681,7.316271 c -1.816872,-0.354824 -4.329138,-1.707506 -5.425869,-2.921456 -1.670863,-1.849445 -2.36355,-3.696884 -2.367043,-6.313044 -0.0034,-2.573756 0.50949,-3.928158 2.226249,-5.878498 0.995338,-1.130764 0.997418,-1.138058 0.775984,-2.720882 -0.268557,-1.91966 -0.09622,-3.046845 0.712706,-4.661467 1.130325,-2.256141 3.083145,-3.407902 5.778127,-3.407902 4.115882,0 6.773617,3.081441 6.440389,7.467142 -0.12414,1.633835 -0.109146,1.679685 0.917415,2.805267 0.573989,0.629356 1.360372,1.819981 1.747517,2.645833 0.594184,1.267506 0.701969,1.852089 0.691514,3.750507 -0.01036,1.880839 -0.128243,2.488767 -0.720192,3.714028 -1.461727,3.025591 -3.937283,4.928017 -7.18737,5.523382 -1.76209,0.322787 -1.922361,0.322657 -3.589427,-0.0029 z m 2.383945,-7.385112 c 0.405822,-0.405822 0.501223,-0.766352 0.40257,-1.521354 -0.07111,-0.544221 -0.261616,-2.656367 -0.423343,-4.693659 -0.161728,-2.037291 -0.416994,-3.852994 -0.567259,-4.034895 -0.383273,-0.463968 -1.663455,-0.41226 -2.075164,0.08382 -0.280835,0.338386 -0.284433,1.27414 -0.01958,5.093229 0.28942,4.173378 0.383394,4.728687 0.870127,5.141701 0.709016,0.601632 1.15928,0.584532 1.812653,-0.06884 z m 22.75147,7.324395 c -3.103527,-0.701664 -5.384328,-2.448631 -6.795575,-5.205033 -0.662846,-1.29465 -0.744969,-1.732536 -0.744318,-3.96875 8.06e-4,-2.774029 0.368599,-3.802983 2.140714,-5.988959 0.854887,-1.054537 0.881266,-1.155717 0.728324,-2.793538 -0.42342,-4.5343 2.472689,-8.0091 6.641264,-7.968303 4.31232,0.0422 7.196698,3.619408 6.51073,8.074603 -0.184018,1.19515 -0.151508,1.285019 0.801484,2.21559 1.977436,1.930915 2.978435,5.461388 2.373995,8.372961 -0.387343,1.865819 -2.000699,4.412409 -3.469496,5.476401 -2.301458,1.667167 -5.563062,2.378291 -8.187122,1.785028 z m 2.674987,-7.350854 c 0.438375,-0.438374 0.526218,-0.765212 0.408889,-1.521354 -0.08219,-0.529668 -0.22796,-2.510846 -0.323939,-4.402616 -0.196233,-3.867796 -0.47209,-4.630208 -1.675306,-4.630208 -1.36467,0 -1.422294,0.296424 -1.060186,5.453728 0.274433,3.908599 0.409969,4.770268 0.813869,5.174169 0.633028,0.633028 1.150705,0.61225 1.836673,-0.07372 z"
       id="path1" /></g></svg>
